<svg width="21" height="21" viewBox="0 0 21 21" fill="none" xmlns="http://www.w3.org/2000/svg">
<path d="M3.27616 10.9203C3.27616 9.48392 4.44376 8.31632 5.88014 8.31632H9.24012V6.72034H5.88014C3.56176 6.72034 1.68018 8.60192 1.68018 10.9203C1.68018 13.2387 3.56176 15.1203 5.88014 15.1203H9.24012V13.5243H5.88014C4.44376 13.5243 3.27616 12.3567 3.27616 10.9203ZM6.72014 11.7603H13.4401V10.0803H6.72014V11.7603ZM14.2801 6.72034H10.9201V8.31632H14.2801C15.7165 8.31632 16.8841 9.48392 16.8841 10.9203C16.8841 12.3567 15.7165 13.5243 14.2801 13.5243H10.9201V15.1203H14.2801C16.5985 15.1203 18.4801 13.2387 18.4801 10.9203C18.4801 8.60192 16.5985 6.72034 14.2801 6.72034Z" fill="#757575"/>
</svg>
