<svg width="335" height="20" viewBox="0 0 335 20" fill="none" xmlns="http://www.w3.org/2000/svg">
<rect x="0.919052" y="9.18994" width="1.08117" height="2.70292" fill="#4489FE"/>
<rect x="3.08127" y="9.18994" width="1.08117" height="2.70292" fill="#4489FE"/>
<rect x="5.24348" y="9.18994" width="1.08117" height="2.70292" fill="#4489FE"/>
<rect x="7.4062" y="9.18994" width="1.08117" height="2.70292" fill="#4489FE"/>
<rect x="9.56842" y="9.18994" width="1.08117" height="2.70292" fill="#4489FE"/>
<rect x="11.7306" y="9.18994" width="1.08117" height="2.70292" fill="#4489FE"/>
<rect x="13.8929" y="9.18994" width="1.08117" height="2.70292" fill="#4489FE"/>
<rect x="16.0556" y="9.18994" width="1.08117" height="2.70292" fill="#4489FE"/>
<rect x="18.2178" y="9.18994" width="1.08117" height="2.70292" fill="#4489FE"/>
<rect x="20.38" y="9.18994" width="1.08117" height="2.70292" fill="#4489FE"/>
<rect x="22.5422" y="9.18994" width="1.08117" height="2.70292" fill="#4489FE"/>
<rect x="24.7049" y="9.18994" width="1.08117" height="2.70292" fill="#4489FE"/>
<rect x="26.8672" y="9.18994" width="1.08117" height="2.70292" fill="#4489FE"/>
<rect x="29.0294" y="9.18994" width="1.08117" height="2.70292" fill="#4489FE"/>
<rect x="31.1916" y="9.18994" width="1.08117" height="2.70292" fill="#4489FE"/>
<rect x="33.3544" y="9.18994" width="1.08117" height="2.70292" fill="#4489FE"/>
<rect x="35.5166" y="9.18994" width="1.08117" height="2.70292" fill="#4489FE"/>
<rect x="37.6788" y="9.18994" width="1.08117" height="2.70292" fill="#4489FE"/>
<rect x="39.841" y="9.18994" width="1.08117" height="2.70292" fill="#4489FE"/>
<rect x="42.0038" y="9.18994" width="1.08117" height="2.70292" fill="#4489FE"/>
<rect x="44.166" y="9.18994" width="1.08117" height="2.70292" fill="#4489FE"/>
<rect x="46.3282" y="9.18994" width="1.08117" height="2.70292" fill="#4489FE"/>
<rect x="48.4904" y="9.18994" width="1.08117" height="2.70292" fill="#4489FE"/>
<rect x="50.6532" y="9.18994" width="1.08117" height="2.70292" fill="#4489FE"/>
<rect x="52.8154" y="9.18994" width="1.08117" height="2.70292" fill="#4489FE"/>
<rect x="54.9776" y="9.18994" width="1.08117" height="2.70292" fill="#4489FE"/>
<rect x="57.1398" y="9.18994" width="1.08117" height="2.70292" fill="#4489FE"/>
<rect x="59.3025" y="9.18994" width="1.08117" height="2.70292" fill="#4489FE"/>
<rect x="61.4647" y="9.18994" width="1.08117" height="2.70292" fill="#4489FE"/>
<rect x="63.627" y="9.18994" width="1.08117" height="2.70292" fill="#4489FE"/>
<rect x="65.7892" y="9.18994" width="1.08117" height="2.70292" fill="#4489FE"/>
<rect x="67.9514" y="9.18994" width="1.08117" height="2.70292" fill="#4489FE"/>
<rect x="70.1141" y="9.18994" width="1.08117" height="2.70292" fill="#4489FE"/>
<rect x="72.2763" y="9.18994" width="1.08117" height="2.70292" fill="#4489FE"/>
<rect x="74.4385" y="6.48706" width="1.08117" height="8.10877" fill="#4489FE"/>
<rect x="76.6007" y="4.32471" width="1.08117" height="11.8929" fill="#4489FE"/>
<rect x="78.7635" y="7.56812" width="1.08117" height="7.0276" fill="#4489FE"/>
<rect x="80.9257" y="3.24353" width="1.08117" height="14.5958" fill="#4489FE"/>
<rect x="83.0879" y="6.48706" width="1.08117" height="9.73052" fill="#4489FE"/>
<rect x="85.2501" y="7.56812" width="1.08117" height="7.0276" fill="#4489FE"/>
<rect x="87.4128" width="1.08117" height="20.0016" fill="#4489FE"/>
<rect x="89.575" y="6.48706" width="1.08117" height="9.73052" fill="#4489FE"/>
<rect x="91.7373" y="5.40588" width="1.08117" height="10.8117" fill="#4489FE"/>
<rect x="93.8995" y="7.56812" width="1.08117" height="5.94643" fill="#4489FE"/>
<rect x="96.0622" y="7.56812" width="1.08117" height="5.94643" fill="#4489FE"/>
<rect x="50.6532" y="6.48706" width="1.08117" height="8.10877" fill="#4489FE"/>
<rect x="52.8154" y="4.32471" width="1.08117" height="11.8929" fill="#4489FE"/>
<rect x="54.9776" y="7.56812" width="1.08117" height="7.0276" fill="#4489FE"/>
<rect x="57.1398" y="3.24353" width="1.08117" height="14.5958" fill="#4489FE"/>
<rect x="59.3025" y="6.48706" width="1.08117" height="9.73052" fill="#4489FE"/>
<rect x="61.4647" y="7.56812" width="1.08117" height="7.0276" fill="#4489FE"/>
<rect x="63.627" width="1.08117" height="20.0016" fill="#4489FE"/>
<rect x="65.7892" y="6.48706" width="1.08117" height="9.73052" fill="#4489FE"/>
<rect x="67.9514" y="5.40588" width="1.08117" height="10.8117" fill="#4489FE"/>
<rect x="31.1916" y="9.18994" width="1.08117" height="2.70292" fill="#4489FE"/>
<rect x="33.3544" y="9.18994" width="1.08117" height="2.70292" fill="#4489FE"/>
<rect x="35.5166" y="9.18994" width="1.08117" height="2.70292" fill="#4489FE"/>
<rect x="37.6788" y="9.18994" width="1.08117" height="2.70292" fill="#4489FE"/>
<rect x="39.841" y="9.18994" width="1.08117" height="2.70292" fill="#4489FE"/>
<rect x="42.0038" y="9.18994" width="1.08117" height="2.70292" fill="#4489FE"/>
<rect x="44.166" y="9.18994" width="1.08117" height="2.70292" fill="#4489FE"/>
<rect x="46.3282" y="9.18994" width="1.08117" height="2.70292" fill="#4489FE"/>
<rect x="48.4904" y="9.18994" width="1.08117" height="2.70292" fill="#4489FE"/>
<rect x="31.1916" y="6.48706" width="1.08117" height="8.10877" fill="#4489FE"/>
<rect x="33.3544" y="4.32471" width="1.08117" height="11.8929" fill="#4489FE"/>
<rect x="35.5166" y="7.56812" width="1.08117" height="7.0276" fill="#4489FE"/>
<rect x="37.6788" y="3.24353" width="1.08117" height="14.5958" fill="#4489FE"/>
<rect x="39.841" y="6.48706" width="1.08117" height="9.73052" fill="#4489FE"/>
<rect x="42.0038" y="7.56812" width="1.08117" height="7.0276" fill="#4489FE"/>
<rect x="44.166" width="1.08117" height="20.0016" fill="#4489FE"/>
<rect x="46.3282" y="6.48706" width="1.08117" height="9.73052" fill="#4489FE"/>
<rect x="48.4904" y="5.40588" width="1.08117" height="10.8117" fill="#4489FE"/>
<rect x="70.1141" y="7.56812" width="1.08117" height="5.94643" fill="#4489FE"/>
<rect x="72.2763" y="7.56812" width="1.08117" height="5.94643" fill="#4489FE"/>
<rect x="109.036" y="6.48706" width="1.08117" height="8.10877" fill="#4489FE"/>
<rect x="111.198" y="4.32471" width="1.08117" height="11.8929" fill="#4489FE"/>
<rect x="113.36" y="7.56812" width="1.08117" height="7.0276" fill="#4489FE"/>
<rect x="115.523" y="3.24353" width="1.08117" height="14.5958" fill="#4489FE"/>
<rect x="117.685" y="6.48706" width="1.08117" height="9.73052" fill="#4489FE"/>
<rect x="119.848" y="7.56812" width="1.08117" height="7.0276" fill="#4489FE"/>
<rect x="122.01" width="1.08117" height="20.0016" fill="#4489FE"/>
<rect x="124.173" y="6.48706" width="1.08117" height="9.73052" fill="#4489FE"/>
<rect x="126.335" y="5.40588" width="1.08117" height="10.8117" fill="#4489FE"/>
<rect x="128.497" y="7.56812" width="1.08117" height="5.94643" fill="#4489FE"/>
<rect x="130.659" y="7.56812" width="1.08117" height="5.94643" fill="#4489FE"/>
<rect x="132.822" y="6.48706" width="1.08117" height="8.10877" fill="#4489FE"/>
<rect x="134.984" y="4.32471" width="1.08117" height="11.8929" fill="#4489FE"/>
<rect x="137.146" y="7.56812" width="1.08117" height="7.0276" fill="#4489FE"/>
<rect x="139.308" y="3.24341" width="1.08117" height="14.5958" fill="#4489FE"/>
<rect x="141.471" y="6.48706" width="1.08117" height="9.73052" fill="#4489FE"/>
<rect x="143.633" y="7.56812" width="1.08117" height="7.0276" fill="#4489FE"/>
<rect x="145.796" width="1.08117" height="20.0016" fill="#4489FE"/>
<rect x="147.958" y="6.48706" width="1.08117" height="9.73052" fill="#4489FE"/>
<rect x="150.121" y="5.40576" width="1.08117" height="10.8117" fill="#4489FE"/>
<rect x="152.283" y="7.56812" width="1.08117" height="5.94643" fill="#4489FE"/>
<rect x="154.445" y="7.56812" width="1.08117" height="5.94643" fill="#4489FE"/>
<rect x="98.2244" y="9.18994" width="1.08117" height="2.70292" fill="#4489FE"/>
<rect x="100.387" y="9.18994" width="1.08117" height="2.70292" fill="#4489FE"/>
<rect x="102.549" y="9.18994" width="1.08117" height="2.70292" fill="#4489FE"/>
<rect x="104.712" y="9.18994" width="1.08117" height="2.70292" fill="#4489FE"/>
<rect x="106.874" y="9.18994" width="1.08117" height="2.70292" fill="#4489FE"/>
<rect x="109.036" y="9.18994" width="1.08117" height="2.70292" fill="#4489FE"/>
<rect x="111.198" y="9.18994" width="1.08117" height="2.70292" fill="#4489FE"/>
<rect x="113.36" y="9.18994" width="1.08117" height="2.70292" fill="#4489FE"/>
<rect x="115.523" y="9.18994" width="1.08117" height="2.70292" fill="#4489FE"/>
<rect x="117.685" y="9.18994" width="1.08117" height="2.70292" fill="#4489FE"/>
<rect x="119.848" y="9.18994" width="1.08117" height="2.70292" fill="#4489FE"/>
<rect x="122.01" y="9.18994" width="1.08117" height="2.70292" fill="#4489FE"/>
<rect x="124.173" y="9.18994" width="1.08117" height="2.70292" fill="#4489FE"/>
<rect x="126.335" y="9.18994" width="1.08117" height="2.70292" fill="#4489FE"/>
<rect x="128.497" y="9.18994" width="1.08117" height="2.70292" fill="#4489FE"/>
<rect x="130.659" y="9.18994" width="1.08117" height="2.70292" fill="#4489FE"/>
<rect x="132.822" y="9.18994" width="1.08117" height="2.70292" fill="#4489FE"/>
<rect x="134.984" y="9.18994" width="1.08117" height="2.70292" fill="#4489FE"/>
<rect x="137.146" y="9.18994" width="1.08117" height="2.70292" fill="#4489FE"/>
<rect x="139.308" y="9.18994" width="1.08117" height="2.70292" fill="#4489FE"/>
<rect x="141.471" y="9.18994" width="1.08117" height="2.70292" fill="#4489FE"/>
<rect x="143.633" y="9.18994" width="1.08117" height="2.70292" fill="#4489FE"/>
<rect x="145.796" y="9.18994" width="1.08117" height="2.70292" fill="#4489FE"/>
<rect x="147.958" y="9.18994" width="1.08117" height="2.70292" fill="#4489FE"/>
<rect x="150.121" y="9.18994" width="1.08117" height="2.70292" fill="#4489FE"/>
<rect x="152.283" y="9.18994" width="1.08117" height="2.70292" fill="#4489FE"/>
<rect x="154.445" y="9.18994" width="1.08117" height="2.70292" fill="#4489FE"/>
<rect x="156.607" y="6.48706" width="1.08117" height="8.10877" fill="#4489FE"/>
<rect x="158.77" y="4.32471" width="1.08117" height="11.8929" fill="#4489FE"/>
<rect x="160.932" y="7.56812" width="1.08117" height="7.0276" fill="#4489FE"/>
<rect x="163.094" y="3.24341" width="1.08117" height="14.5958" fill="#4489FE"/>
<rect x="165.257" y="6.48706" width="1.08117" height="9.73052" fill="#4489FE"/>
<rect x="167.419" y="7.56812" width="1.08117" height="7.0276" fill="#4489FE"/>
<rect x="169.581" width="1.08117" height="20.0016" fill="#4489FE"/>
<rect x="171.744" y="6.48706" width="1.08117" height="9.73052" fill="#4489FE"/>
<rect x="173.906" y="5.40576" width="1.08117" height="10.8117" fill="#C4C4C4"/>
<rect x="176.068" y="7.56812" width="1.08117" height="5.94643" fill="#C4C4C4"/>
<rect x="178.231" y="7.56812" width="1.08117" height="5.94643" fill="#C4C4C4"/>
<rect x="180.393" y="6.48706" width="1.08117" height="8.10877" fill="#C4C4C4"/>
<rect x="182.555" y="4.32471" width="1.08117" height="11.8929" fill="#C4C4C4"/>
<rect x="184.717" y="7.56812" width="1.08117" height="7.0276" fill="#C4C4C4"/>
<rect x="186.88" y="3.24341" width="1.08117" height="14.5958" fill="#C4C4C4"/>
<rect x="189.042" y="6.48706" width="1.08117" height="9.73052" fill="#C4C4C4"/>
<rect x="191.205" y="7.56812" width="1.08117" height="7.0276" fill="#C4C4C4"/>
<rect x="193.367" width="1.08117" height="20.0016" fill="#C4C4C4"/>
<rect x="195.53" y="6.48706" width="1.08117" height="9.73052" fill="#C4C4C4"/>
<rect x="197.692" y="5.40576" width="1.08117" height="10.8117" fill="#C4C4C4"/>
<rect x="199.854" y="7.56812" width="1.08117" height="5.94643" fill="#C4C4C4"/>
<rect x="202.016" y="7.56812" width="1.08117" height="5.94643" fill="#C4C4C4"/>
<rect x="156.607" y="9.18994" width="1.08117" height="2.70292" fill="#4489FE"/>
<rect x="158.77" y="9.18994" width="1.08117" height="2.70292" fill="#4489FE"/>
<rect x="160.932" y="9.18994" width="1.08117" height="2.70292" fill="#4489FE"/>
<rect x="163.094" y="9.18994" width="1.08117" height="2.70292" fill="#4489FE"/>
<rect x="165.257" y="9.18994" width="1.08117" height="2.70292" fill="#4489FE"/>
<rect x="167.419" y="9.18994" width="1.08117" height="2.70292" fill="#4489FE"/>
<rect x="169.581" y="9.18994" width="1.08117" height="2.70292" fill="#4489FE"/>
<rect x="171.744" y="9.18994" width="1.08117" height="2.70292" fill="#4489FE"/>
<rect x="173.906" y="9.18994" width="1.08117" height="2.70292" fill="#C4C4C4"/>
<rect x="176.068" y="9.18994" width="1.08117" height="2.70292" fill="#C4C4C4"/>
<rect x="178.231" y="9.18994" width="1.08117" height="2.70292" fill="#C4C4C4"/>
<rect x="180.393" y="9.18994" width="1.08117" height="2.70292" fill="#C4C4C4"/>
<rect x="182.555" y="9.18994" width="1.08117" height="2.70292" fill="#C4C4C4"/>
<rect x="184.717" y="9.18994" width="1.08117" height="2.70292" fill="#C4C4C4"/>
<rect x="186.88" y="9.18994" width="1.08117" height="2.70292" fill="#C4C4C4"/>
<rect x="189.042" y="9.18994" width="1.08117" height="2.70292" fill="#C4C4C4"/>
<rect x="191.205" y="9.18994" width="1.08117" height="2.70292" fill="#C4C4C4"/>
<rect x="193.367" y="9.18994" width="1.08117" height="2.70292" fill="#C4C4C4"/>
<rect x="195.53" y="9.18994" width="1.08117" height="2.70292" fill="#C4C4C4"/>
<rect x="197.692" y="9.18994" width="1.08117" height="2.70292" fill="#C4C4C4"/>
<rect x="199.854" y="9.18994" width="1.08117" height="2.70292" fill="#C4C4C4"/>
<rect x="202.016" y="9.18994" width="1.08117" height="2.70292" fill="#C4C4C4"/>
<rect x="227.964" y="6.48706" width="1.08117" height="8.10877" fill="#C4C4C4"/>
<rect x="230.127" y="4.32471" width="1.08117" height="11.8929" fill="#C4C4C4"/>
<rect x="232.289" y="7.56812" width="1.08117" height="7.0276" fill="#C4C4C4"/>
<rect x="234.451" y="3.24341" width="1.08117" height="14.5958" fill="#C4C4C4"/>
<rect x="236.614" y="6.48706" width="1.08117" height="9.73052" fill="#C4C4C4"/>
<rect x="238.776" y="7.56812" width="1.08117" height="7.0276" fill="#C4C4C4"/>
<rect x="240.939" width="1.08117" height="20.0016" fill="#C4C4C4"/>
<rect x="243.101" y="6.48706" width="1.08117" height="9.73052" fill="#C4C4C4"/>
<rect x="245.263" y="5.40576" width="1.08117" height="10.8117" fill="#C4C4C4"/>
<rect x="247.425" y="7.56812" width="1.08117" height="5.94643" fill="#C4C4C4"/>
<rect x="249.588" y="7.56812" width="1.08117" height="5.94643" fill="#C4C4C4"/>
<rect x="251.75" y="6.48706" width="1.08117" height="8.10877" fill="#C4C4C4"/>
<rect x="253.912" y="4.32471" width="1.08117" height="11.8929" fill="#C4C4C4"/>
<rect x="256.075" y="7.56812" width="1.08117" height="7.0276" fill="#C4C4C4"/>
<rect x="258.237" y="3.24353" width="1.08117" height="14.5958" fill="#C4C4C4"/>
<rect x="260.4" y="6.48706" width="1.08117" height="9.73052" fill="#C4C4C4"/>
<rect x="262.562" y="7.56812" width="1.08117" height="7.0276" fill="#C4C4C4"/>
<rect x="264.724" width="1.08117" height="20.0016" fill="#C4C4C4"/>
<rect x="266.887" y="6.48706" width="1.08117" height="9.73052" fill="#C4C4C4"/>
<rect x="269.049" y="5.40588" width="1.08117" height="10.8117" fill="#C4C4C4"/>
<rect x="271.211" y="7.56812" width="1.08117" height="5.94643" fill="#C4C4C4"/>
<rect x="273.373" y="7.56812" width="1.08117" height="5.94643" fill="#C4C4C4"/>
<rect x="227.964" y="9.18994" width="1.08117" height="2.70292" fill="#C4C4C4"/>
<rect x="230.127" y="9.18994" width="1.08117" height="2.70292" fill="#C4C4C4"/>
<rect x="232.289" y="9.18994" width="1.08117" height="2.70292" fill="#C4C4C4"/>
<rect x="234.451" y="9.18994" width="1.08117" height="2.70292" fill="#C4C4C4"/>
<rect x="236.614" y="9.18994" width="1.08117" height="2.70292" fill="#C4C4C4"/>
<rect x="238.776" y="9.18994" width="1.08117" height="2.70292" fill="#C4C4C4"/>
<rect x="240.939" y="9.18994" width="1.08117" height="2.70292" fill="#C4C4C4"/>
<rect x="243.101" y="9.18994" width="1.08117" height="2.70292" fill="#C4C4C4"/>
<rect x="245.263" y="9.18994" width="1.08117" height="2.70292" fill="#C4C4C4"/>
<rect x="247.425" y="9.18994" width="1.08117" height="2.70292" fill="#C4C4C4"/>
<rect x="249.588" y="9.18994" width="1.08117" height="2.70292" fill="#C4C4C4"/>
<rect x="251.75" y="9.18994" width="1.08117" height="2.70292" fill="#C4C4C4"/>
<rect x="253.912" y="9.18994" width="1.08117" height="2.70292" fill="#C4C4C4"/>
<rect x="256.075" y="9.18994" width="1.08117" height="2.70292" fill="#C4C4C4"/>
<rect x="258.237" y="9.18994" width="1.08117" height="2.70292" fill="#C4C4C4"/>
<rect x="260.4" y="9.18994" width="1.08117" height="2.70292" fill="#C4C4C4"/>
<rect x="262.562" y="9.18994" width="1.08117" height="2.70292" fill="#C4C4C4"/>
<rect x="264.724" y="9.18994" width="1.08117" height="2.70292" fill="#C4C4C4"/>
<rect x="266.887" y="9.18994" width="1.08117" height="2.70292" fill="#C4C4C4"/>
<rect x="269.049" y="9.18994" width="1.08117" height="2.70292" fill="#C4C4C4"/>
<rect x="271.211" y="9.18994" width="1.08117" height="2.70292" fill="#C4C4C4"/>
<rect x="273.373" y="9.18994" width="1.08117" height="2.70292" fill="#C4C4C4"/>
<rect x="275.536" y="6.48706" width="1.08117" height="8.10877" fill="#C4C4C4"/>
<rect x="277.698" y="4.32471" width="1.08117" height="11.8929" fill="#C4C4C4"/>
<rect x="279.861" y="7.56812" width="1.08117" height="7.0276" fill="#C4C4C4"/>
<rect x="282.023" y="3.24353" width="1.08117" height="14.5958" fill="#C4C4C4"/>
<rect x="284.186" y="6.48706" width="1.08117" height="9.73052" fill="#C4C4C4"/>
<rect x="286.348" y="7.56812" width="1.08117" height="7.0276" fill="#C4C4C4"/>
<rect x="288.51" width="1.08117" height="20.0016" fill="#C4C4C4"/>
<rect x="290.672" y="6.48706" width="1.08117" height="9.73052" fill="#C4C4C4"/>
<rect x="292.835" y="5.40588" width="1.08117" height="10.8117" fill="#C4C4C4"/>
<rect x="294.997" y="7.56812" width="1.08117" height="5.94643" fill="#C4C4C4"/>
<rect x="297.159" y="7.56812" width="1.08117" height="5.94643" fill="#C4C4C4"/>
<rect x="299.322" y="6.48706" width="1.08117" height="8.10877" fill="#C4C4C4"/>
<rect x="301.484" y="4.32471" width="1.08117" height="11.8929" fill="#C4C4C4"/>
<rect x="303.647" y="7.56812" width="1.08117" height="7.0276" fill="#C4C4C4"/>
<rect x="305.809" y="3.24353" width="1.08117" height="14.5958" fill="#C4C4C4"/>
<rect x="307.971" y="6.48706" width="1.08117" height="9.73052" fill="#C4C4C4"/>
<rect x="310.133" y="7.56812" width="1.08117" height="7.0276" fill="#C4C4C4"/>
<rect x="312.296" width="1.08117" height="20.0016" fill="#C4C4C4"/>
<rect x="314.458" y="6.48706" width="1.08117" height="9.73052" fill="#C4C4C4"/>
<rect x="316.62" y="5.40588" width="1.08117" height="10.8117" fill="#C4C4C4"/>
<rect x="318.783" y="7.56812" width="1.08117" height="5.94643" fill="#C4C4C4"/>
<rect x="320.945" y="7.56812" width="1.08117" height="5.94643" fill="#C4C4C4"/>
<rect x="275.536" y="9.18994" width="1.08117" height="2.70292" fill="#C4C4C4"/>
<rect x="277.698" y="9.18994" width="1.08117" height="2.70292" fill="#C4C4C4"/>
<rect x="279.861" y="9.18994" width="1.08117" height="2.70292" fill="#C4C4C4"/>
<rect x="282.023" y="9.18994" width="1.08117" height="2.70292" fill="#C4C4C4"/>
<rect x="284.186" y="9.18994" width="1.08117" height="2.70292" fill="#C4C4C4"/>
<rect x="286.348" y="9.18994" width="1.08117" height="2.70292" fill="#C4C4C4"/>
<rect x="288.51" y="9.18994" width="1.08117" height="2.70292" fill="#C4C4C4"/>
<rect x="290.672" y="9.18994" width="1.08117" height="2.70292" fill="#C4C4C4"/>
<rect x="292.835" y="9.18994" width="1.08117" height="2.70292" fill="#C4C4C4"/>
<rect x="294.997" y="9.18994" width="1.08117" height="2.70292" fill="#C4C4C4"/>
<rect x="297.159" y="9.18994" width="1.08117" height="2.70292" fill="#C4C4C4"/>
<rect x="299.322" y="9.18994" width="1.08117" height="2.70292" fill="#C4C4C4"/>
<rect x="301.484" y="9.18994" width="1.08117" height="2.70292" fill="#C4C4C4"/>
<rect x="303.647" y="9.18994" width="1.08117" height="2.70292" fill="#C4C4C4"/>
<rect x="305.809" y="9.18994" width="1.08117" height="2.70292" fill="#C4C4C4"/>
<rect x="307.971" y="9.18994" width="1.08117" height="2.70292" fill="#C4C4C4"/>
<rect x="310.133" y="9.18994" width="1.08117" height="2.70292" fill="#C4C4C4"/>
<rect x="312.296" y="9.18994" width="1.08117" height="2.70292" fill="#C4C4C4"/>
<rect x="314.458" y="9.18994" width="1.08117" height="2.70292" fill="#C4C4C4"/>
<rect x="316.62" y="9.18994" width="1.08117" height="2.70292" fill="#C4C4C4"/>
<rect x="318.783" y="9.18994" width="1.08117" height="2.70292" fill="#C4C4C4"/>
<rect x="320.945" y="9.18994" width="1.08117" height="2.70292" fill="#C4C4C4"/>
<rect x="156.607" y="9.18994" width="1.08117" height="2.70292" fill="#4489FE"/>
<rect x="158.77" y="9.18994" width="1.08117" height="2.70292" fill="#4489FE"/>
<rect x="160.932" y="9.18994" width="1.08117" height="2.70292" fill="#4489FE"/>
<rect x="163.094" y="9.18994" width="1.08117" height="2.70292" fill="#4489FE"/>
<rect x="165.257" y="9.18994" width="1.08117" height="2.70292" fill="#4489FE"/>
<rect x="167.419" y="9.18994" width="1.08117" height="2.70292" fill="#4489FE"/>
<rect x="169.581" y="9.18994" width="1.08117" height="2.70292" fill="#4489FE"/>
<rect x="171.744" y="9.18994" width="1.08117" height="2.70292" fill="#4489FE"/>
<rect x="173.906" y="9.18994" width="1.08117" height="2.70292" fill="#C4C4C4"/>
<rect x="176.068" y="9.18994" width="1.08117" height="2.70292" fill="#C4C4C4"/>
<rect x="178.231" y="9.18994" width="1.08117" height="2.70292" fill="#C4C4C4"/>
<rect x="180.393" y="9.18994" width="1.08117" height="2.70292" fill="#C4C4C4"/>
<rect x="182.555" y="9.18994" width="1.08117" height="2.70292" fill="#C4C4C4"/>
<rect x="184.717" y="9.18994" width="1.08117" height="2.70292" fill="#C4C4C4"/>
<rect x="186.88" y="9.18994" width="1.08117" height="2.70292" fill="#C4C4C4"/>
<rect x="189.042" y="9.18994" width="1.08117" height="2.70292" fill="#C4C4C4"/>
<rect x="191.205" y="9.18994" width="1.08117" height="2.70292" fill="#C4C4C4"/>
<rect x="193.367" y="9.18994" width="1.08117" height="2.70292" fill="#C4C4C4"/>
<rect x="195.53" y="9.18994" width="1.08117" height="2.70292" fill="#C4C4C4"/>
<rect x="197.692" y="9.18994" width="1.08117" height="2.70292" fill="#C4C4C4"/>
<rect x="199.854" y="9.18994" width="1.08117" height="2.70292" fill="#C4C4C4"/>
<rect x="202.016" y="9.18994" width="1.08117" height="2.70292" fill="#C4C4C4"/>
<rect x="204.179" y="9.18994" width="1.08117" height="2.70292" fill="#C4C4C4"/>
<rect x="206.341" y="9.18994" width="1.08117" height="2.70292" fill="#C4C4C4"/>
<rect x="208.503" y="9.18994" width="1.08117" height="2.70292" fill="#C4C4C4"/>
<rect x="210.666" y="9.18994" width="1.08117" height="2.70292" fill="#C4C4C4"/>
<rect x="212.828" y="9.18994" width="1.08117" height="2.70292" fill="#C4C4C4"/>
<rect x="214.991" y="9.18994" width="1.08117" height="2.70292" fill="#C4C4C4"/>
<rect x="217.153" y="9.18994" width="1.08117" height="2.70292" fill="#C4C4C4"/>
<rect x="219.315" y="9.18994" width="1.08117" height="2.70292" fill="#C4C4C4"/>
<rect x="221.478" y="9.18994" width="1.08117" height="2.70292" fill="#C4C4C4"/>
<rect x="223.64" y="9.18994" width="1.08117" height="2.70292" fill="#C4C4C4"/>
<rect x="225.802" y="9.18994" width="1.08117" height="2.70292" fill="#C4C4C4"/>
<rect x="227.964" y="9.18994" width="1.08117" height="2.70292" fill="#C4C4C4"/>
<rect x="230.127" y="9.18994" width="1.08117" height="2.70292" fill="#C4C4C4"/>
<rect x="232.289" y="9.18994" width="1.08117" height="2.70292" fill="#C4C4C4"/>
<rect x="234.451" y="9.18994" width="1.08117" height="2.70292" fill="#C4C4C4"/>
<rect x="236.614" y="9.18994" width="1.08117" height="2.70292" fill="#C4C4C4"/>
<rect x="238.776" y="9.18994" width="1.08117" height="2.70292" fill="#C4C4C4"/>
<rect x="240.939" y="9.18994" width="1.08117" height="2.70292" fill="#C4C4C4"/>
<rect x="243.101" y="9.18994" width="1.08117" height="2.70292" fill="#C4C4C4"/>
<rect x="245.263" y="9.18994" width="1.08117" height="2.70292" fill="#C4C4C4"/>
<rect x="247.425" y="9.18994" width="1.08117" height="2.70292" fill="#C4C4C4"/>
<rect x="249.588" y="9.18994" width="1.08117" height="2.70292" fill="#C4C4C4"/>
<rect x="251.75" y="9.18994" width="1.08117" height="2.70292" fill="#C4C4C4"/>
<rect x="253.912" y="9.18994" width="1.08117" height="2.70292" fill="#C4C4C4"/>
<rect x="256.075" y="9.18994" width="1.08117" height="2.70292" fill="#C4C4C4"/>
<rect x="258.237" y="9.18994" width="1.08117" height="2.70292" fill="#C4C4C4"/>
<rect x="260.4" y="9.18994" width="1.08117" height="2.70292" fill="#C4C4C4"/>
<rect x="262.562" y="9.18994" width="1.08117" height="2.70292" fill="#C4C4C4"/>
<rect x="264.724" y="9.18994" width="1.08117" height="2.70292" fill="#C4C4C4"/>
<rect x="266.887" y="9.18994" width="1.08117" height="2.70292" fill="#C4C4C4"/>
<rect x="269.049" y="9.18994" width="1.08117" height="2.70292" fill="#C4C4C4"/>
<rect x="271.211" y="9.18994" width="1.08117" height="2.70292" fill="#C4C4C4"/>
<rect x="273.373" y="9.18994" width="1.08117" height="2.70292" fill="#C4C4C4"/>
<rect x="275.536" y="9.18994" width="1.08117" height="2.70292" fill="#C4C4C4"/>
<rect x="277.698" y="9.18994" width="1.08117" height="2.70292" fill="#C4C4C4"/>
<rect x="279.861" y="9.18994" width="1.08117" height="2.70292" fill="#C4C4C4"/>
<rect x="282.023" y="9.18994" width="1.08117" height="2.70292" fill="#C4C4C4"/>
<rect x="284.186" y="9.18994" width="1.08117" height="2.70292" fill="#C4C4C4"/>
<rect x="286.348" y="9.18994" width="1.08117" height="2.70292" fill="#C4C4C4"/>
<rect x="288.51" y="9.18994" width="1.08117" height="2.70292" fill="#C4C4C4"/>
<rect x="290.672" y="9.18994" width="1.08117" height="2.70292" fill="#C4C4C4"/>
<rect x="292.835" y="9.18994" width="1.08117" height="2.70292" fill="#C4C4C4"/>
<rect x="294.997" y="9.18994" width="1.08117" height="2.70292" fill="#C4C4C4"/>
<rect x="297.159" y="9.18994" width="1.08117" height="2.70292" fill="#C4C4C4"/>
<rect x="299.322" y="9.18994" width="1.08117" height="2.70292" fill="#C4C4C4"/>
<rect x="301.484" y="9.18994" width="1.08117" height="2.70292" fill="#C4C4C4"/>
<rect x="303.647" y="9.18994" width="1.08117" height="2.70292" fill="#C4C4C4"/>
<rect x="305.809" y="9.18994" width="1.08117" height="2.70292" fill="#C4C4C4"/>
<rect x="307.971" y="9.18994" width="1.08117" height="2.70292" fill="#C4C4C4"/>
<rect x="310.133" y="9.18994" width="1.08117" height="2.70292" fill="#C4C4C4"/>
<rect x="312.296" y="9.18994" width="1.08117" height="2.70292" fill="#C4C4C4"/>
<rect x="314.458" y="9.18994" width="1.08117" height="2.70292" fill="#C4C4C4"/>
<rect x="316.62" y="9.18994" width="1.08117" height="2.70292" fill="#C4C4C4"/>
<rect x="318.783" y="9.18994" width="1.08117" height="2.70292" fill="#C4C4C4"/>
<rect x="320.945" y="9.18994" width="1.08117" height="2.70292" fill="#C4C4C4"/>
<rect x="323.107" y="9.18994" width="1.08117" height="2.70292" fill="#C4C4C4"/>
<rect x="325.27" y="9.18994" width="1.08117" height="2.70292" fill="#C4C4C4"/>
<rect x="327.432" y="9.18994" width="1.08117" height="2.70292" fill="#C4C4C4"/>
<rect x="329.595" y="9.18994" width="1.08117" height="2.70292" fill="#C4C4C4"/>
<rect x="331.757" y="9.18994" width="1.08117" height="2.70292" fill="#C4C4C4"/>
<rect x="333.919" y="9.18994" width="1.08117" height="2.70292" fill="#C4C4C4"/>
</svg>
