<svg width="21" height="21" viewBox="0 0 21 21" fill="none" xmlns="http://www.w3.org/2000/svg">
<g clip-path="url(#clip0_76_627)">
<path d="M10.8391 6.30035C14.0226 6.30035 16.8618 8.08954 18.2478 10.9203C16.8618 13.7511 14.031 15.5403 10.8391 15.5403C7.64708 15.5403 4.8163 13.7511 3.43031 10.9203C4.8163 8.08954 7.65548 6.30035 10.8391 6.30035ZM10.8391 4.62036C6.63908 4.62036 3.05231 7.23274 1.59912 10.9203C3.05231 14.6079 6.63908 17.2203 10.8391 17.2203C15.039 17.2203 18.6258 14.6079 20.079 10.9203C18.6258 7.23274 15.039 4.62036 10.8391 4.62036ZM10.8391 8.82033C11.9982 8.82033 12.939 9.76112 12.939 10.9203C12.939 12.0795 11.9982 13.0203 10.8391 13.0203C9.67986 13.0203 8.73907 12.0795 8.73907 10.9203C8.73907 9.76112 9.67986 8.82033 10.8391 8.82033ZM10.8391 7.14034C8.75587 7.14034 7.05908 8.83713 7.05908 10.9203C7.05908 13.0035 8.75587 14.7003 10.8391 14.7003C12.9222 14.7003 14.619 13.0035 14.619 10.9203C14.619 8.83713 12.9222 7.14034 10.8391 7.14034Z" fill="#757575"/>
</g>
<defs>
<clipPath id="clip0_76_627">
<rect width="20.1599" height="20.1599" fill="white" transform="translate(0.759033 0.840332)"/>
</clipPath>
</defs>
</svg>
