<svg width="18" height="18" viewBox="0 0 18 18" fill="none" xmlns="http://www.w3.org/2000/svg">
<path opacity="0.4" d="M12.6632 3.83615H10.4559C9.90606 3.83978 9.38399 3.59518 9.03553 3.17064L8.30865 2.16573C7.96603 1.73748 7.44397 1.49172 6.89491 1.50023H5.33445C2.53364 1.50023 1.50001 3.14402 1.50001 5.93914V8.96053C1.49652 9.2928 16.4967 9.29238 16.4977 8.96053V8.08207C16.511 5.28695 15.5041 3.83615 12.6632 3.83615Z" fill="#4489FE"/>
<path fill-rule="evenodd" clip-rule="evenodd" d="M15.6241 4.9076C15.864 5.18816 16.0495 5.51089 16.1709 5.85927C16.4099 6.57528 16.5205 7.32772 16.4977 8.08205V12.0218C16.4967 12.3537 16.4722 12.685 16.4243 13.0134C16.3331 13.593 16.1293 14.1491 15.8242 14.6506C15.6839 14.8928 15.5136 15.1164 15.3173 15.3161C14.4287 16.1316 13.2487 16.5562 12.0431 16.494H5.94796C4.74037 16.5557 3.55846 16.1314 2.66701 15.3161C2.47305 15.116 2.30503 14.8924 2.16686 14.6506C1.86356 14.1495 1.66402 13.5928 1.58002 13.0134C1.52662 12.6856 1.49986 12.354 1.5 12.0218V8.08205C1.49987 7.75301 1.51768 7.42421 1.55335 7.09711C1.56085 7.03972 1.5721 6.98326 1.58324 6.92739C1.6018 6.83425 1.62004 6.74273 1.62004 6.65122C1.68773 6.25648 1.81122 5.87332 1.98681 5.51321C2.50696 4.40181 3.57394 3.83614 5.32111 3.83614H12.6566C13.6352 3.76045 14.6065 4.05505 15.3774 4.66136C15.4661 4.73665 15.5487 4.81899 15.6241 4.9076ZM5.22779 11.6558H12.7766H12.79C12.9556 11.663 13.1172 11.6037 13.2388 11.4912C13.3603 11.3786 13.4316 11.2222 13.4368 11.0568C13.4462 10.9115 13.3984 10.7682 13.3035 10.6575C13.1943 10.5088 13.0214 10.42 12.8367 10.418H5.22779C4.88527 10.418 4.60761 10.6951 4.60761 11.0369C4.60761 11.3787 4.88527 11.6558 5.22779 11.6558Z" fill="#4489FE"/>
</svg>
