<svg width="50" height="50" viewBox="0 0 50 50" fill="none" xmlns="http://www.w3.org/2000/svg">
<rect width="50" height="50" rx="8" fill="#E9F0FD"/>
<path fill-rule="evenodd" clip-rule="evenodd" d="M20.81 15H29.191C32.28 15 34 16.78 34 19.83V30.16C34 33.26 32.28 35 29.191 35H20.81C17.77 35 16 33.26 16 30.16V19.83C16 16.78 17.77 15 20.81 15ZM21.08 19.66V19.65H24.069C24.5 19.65 24.85 20 24.85 20.429C24.85 20.87 24.5 21.22 24.069 21.22H21.08C20.649 21.22 20.3 20.87 20.3 20.44C20.3 20.01 20.649 19.66 21.08 19.66ZM21.08 25.74H28.92C29.35 25.74 29.7 25.39 29.7 24.96C29.7 24.53 29.35 24.179 28.92 24.179H21.08C20.649 24.179 20.3 24.53 20.3 24.96C20.3 25.39 20.649 25.74 21.08 25.74ZM21.08 30.31H28.92C29.319 30.27 29.62 29.929 29.62 29.53C29.62 29.12 29.319 28.78 28.92 28.74H21.08C20.78 28.71 20.49 28.85 20.33 29.11C20.17 29.36 20.17 29.69 20.33 29.95C20.49 30.2 20.78 30.35 21.08 30.31Z" fill="#4489FE"/>
</svg>
