<svg width="15" height="16" viewBox="0 0 15 16" fill="none" xmlns="http://www.w3.org/2000/svg">
<path fill-rule="evenodd" clip-rule="evenodd" d="M4.0896 0.5H5.53844C6.23013 0.5 6.88144 0.82609 7.29606 1.37964L7.95737 2.26036C8.16794 2.54031 8.49738 2.70525 8.8463 2.70595H10.8972C13.7329 2.70595 15 4.19205 15 7.22794L14.9802 10.8287C14.9802 13.7261 13.2086 15.5 10.315 15.5H4.67179C1.77264 15.5 0 13.7271 0 10.8287V5.17135C0 2.13158 1.29743 0.5 4.0896 0.5ZM5.53844 1.5886H4.0896C1.95924 1.5886 1.08716 2.68529 1.08716 5.17135V10.8286C1.08716 13.1256 2.37277 14.4114 4.67178 14.4114H10.315C12.6081 14.4114 13.893 13.1248 13.893 10.8256L13.9128 7.22494C13.9128 4.75844 13.091 3.79455 10.8972 3.79455H8.84522C8.15454 3.79317 7.50445 3.46769 7.08868 2.91491L6.42672 2.03333C6.21703 1.75336 5.88793 1.5886 5.53844 1.5886Z" fill="#4489FE"/>
<path d="M8.92095 7.92134H7.57788V6.57905C7.57788 6.2596 7.31906 6 6.99961 6C6.68016 6 6.42057 6.2596 6.42057 6.57905V7.92134H5.07827C4.75882 7.92134 4.5 8.18094 4.5 8.50039C4.5 8.81984 4.75882 9.07943 5.07827 9.07943H6.42057V10.421C6.42057 10.7404 6.68016 11 6.99961 11C7.31906 11 7.57788 10.7404 7.57788 10.421V9.07943H8.92095C9.2404 9.07943 9.5 8.81984 9.5 8.50039C9.5 8.18094 9.2404 7.92134 8.92095 7.92134Z" fill="#4489FE"/>
</svg>
