<svg width="14" height="16" viewBox="0 0 14 16" fill="none" xmlns="http://www.w3.org/2000/svg">
<path fill-rule="evenodd" clip-rule="evenodd" d="M8.95471 0.508923C8.92241 0.50316 8.88917 0.500153 8.85522 0.500153C8.82127 0.500153 8.78802 0.50316 8.75573 0.508923H4.06324C2.19777 0.508923 0.625244 2.0223 0.625244 3.86817V12.0049C0.625244 13.9416 2.11433 15.3987 4.06324 15.3987H10.0542C11.9057 15.3987 13.4142 13.865 13.4142 12.0049V5.02842C13.4142 4.88319 13.3581 4.74359 13.2575 4.63883L9.45798 0.681832C9.35192 0.571366 9.20539 0.508923 9.05225 0.508923H8.95471ZM8.29272 1.63333L4.06324 1.63393C2.80965 1.63393 1.75024 2.65348 1.75024 3.86818V12.0049C1.75024 13.3147 2.73024 14.2737 4.06324 14.2737H10.0542C11.2802 14.2737 12.2892 13.2478 12.2892 12.0049L12.289 5.73746L11.6316 5.73971C11.3815 5.7394 11.097 5.73887 10.7808 5.73815C9.45305 5.73535 8.36978 4.69526 8.29666 3.38571L8.29272 3.2444V1.63333ZM11.6733 4.61303L10.7833 4.61315C10.0285 4.61156 9.41772 3.99933 9.41772 3.2444V2.26404L11.6733 4.61303ZM8.72082 8.12315C9.03148 8.12315 9.28332 8.37499 9.28332 8.68565C9.28332 8.97042 9.0717 9.20577 8.79715 9.24302L8.72082 9.24815H7.44529V10.5241C7.44529 10.8347 7.19345 11.0866 6.88279 11.0866C6.59802 11.0866 6.36267 10.8749 6.32543 10.6004L6.32029 10.5241V9.24815H5.04507C4.73441 9.24815 4.48257 8.99631 4.48257 8.68565C4.48257 8.40088 4.69419 8.16553 4.96874 8.12829L5.04507 8.12315H6.32029V6.84831C6.32029 6.53765 6.57213 6.28581 6.88279 6.28581C7.16756 6.28581 7.40291 6.49743 7.44016 6.77198L7.44529 6.84831V8.12315H8.72082Z" fill="#4489FE"/>
</svg>
