<svg width="50" height="50" viewBox="0 0 50 50" fill="none" xmlns="http://www.w3.org/2000/svg">
<rect width="50" height="50" rx="8" fill="#E9F0FD"/>
<path fill-rule="evenodd" clip-rule="evenodd" d="M15 25.015C15 19.7471 19.21 15 25.02 15C30.7 15 35 19.657 35 24.985C35 31.1642 29.96 35 25 35C23.36 35 21.54 34.5593 20.08 33.698C19.57 33.3876 19.14 33.1572 18.59 33.3375L16.57 33.9384C16.06 34.0986 15.6 33.698 15.75 33.1572L16.42 30.9139C16.53 30.6034 16.51 30.2729 16.35 30.0125C15.49 28.4301 15 26.6975 15 25.015ZM23.7 25.015C23.7 25.7261 24.27 26.2969 24.98 26.307C25.69 26.307 26.26 25.7261 26.26 25.025C26.26 24.314 25.69 23.7431 24.98 23.7431C24.28 23.7331 23.7 24.314 23.7 25.015ZM28.3101 25.025C28.3101 25.7261 28.8801 26.307 29.5901 26.307C30.3001 26.307 30.8701 25.7261 30.8701 25.025C30.8701 24.314 30.3001 23.7431 29.5901 23.7431C28.8801 23.7431 28.3101 24.314 28.3101 25.025ZM20.37 26.307C19.67 26.307 19.09 25.7261 19.09 25.025C19.09 24.314 19.66 23.7431 20.37 23.7431C21.08 23.7431 21.65 24.314 21.65 25.025C21.65 25.7261 21.08 26.2969 20.37 26.307Z" fill="#4489FE"/>
<circle cx="35" cy="15" r="7" fill="#FF5553" stroke="#E9F0FD" stroke-width="2"/>
</svg>
